#!OML:ASF H:\MichaelJackson\Top Level 1\Subject 1\Session 1\male.ASF
:FULLY-SPECIFIED
:DEGREES
760
root 1.62321 15.1471 33.8775 -356.622 -4.41125 3.98054
lowerback -0.92212 -2.6208 0.739694
upperback 0.385426 -3.48307 -4.41987
thorax 0.592403 -1.738 -5.01437
lowerneck -5.46052 1.57644 7.11845
upperneck 3.18244 1.45667 2.50573
head 1.97466 0.879226 -0.370376
rclavicle 3.03147e-014 6.36111e-015
rhumerus 6.66417 -21.4756 3.7071
rradius 24.0611
rwrist -5.33165
rhand -33.2197 -42.9003
rfingers 7.12502
rthumb -6.42636 -432.783
lclavicle 3.03147e-014 6.36111e-015
lhumerus -55.6643 -39.3798 114.753
lradius 54.3579
lwrist 30.8738
lhand 25.8177 27.5562
lfingers 7.12502
lthumb 49.9108 48.8257
rfemur -30.7149 -17.1769 -5.81552
rtibia 54.4129
rfoot -20.0947 2.38379
rtoes -32.4574
lfemur 7.20067 -21.4254 0.0479693
ltibia 9.58539
lfoot -14.0975 26.357
ltoes -31.2109
761
root 1.62434 15.1471 33.8805 -356.601 -4.38701 3.93521
lowerback -0.952224 -2.61894 0.7315
upperback 0.373551 -3.48033 -4.4075
thorax 0.598578 -1.73669 -4.99802
lowerneck -5.48878 1.55612 7.10792
upperneck 3.25332 1.42186 2.56713
head 2.0015 0.865935 -0.349949
rclavicle -7.15625e-014 -5.00937e-014
rhumerus 6.6601 -21.3922 3.65196
rradius 24.0774
rwrist -5.39951
rhand -33.1658 -42.7479
rfingers 7.12502
rthumb -6.37428 -432.632
lclavicle -7.15625e-014 -5.00937e-014
lhumerus -55.6445 -39.4408 114.808
lradius 54.3006
lwrist 30.863
lhand 25.8864 27.6366
lfingers 7.12502
lthumb 49.9737 48.8731
rfemur -30.6903 -17.1993 -5.77863
rtibia 54.3877
rfoot -20.1051 2.40902
rtoes -32.422
lfemur 7.15397 -21.5348 0.0935762
ltibia 9.65016
lfoot -14.1101 26.4611
ltoes -31.2297
762
root 1.62548 15.1469 33.8832 -356.583 -4.36603 3.89141
lowerback -0.97565 -2.61597 0.723493
upperback 0.363941 -3.47615 -4.39701
thorax 0.603342 -1.73463 -4.98346
lowerneck -5.52903 1.53545 7.09224
upperneck 3.31977 1.38573 2.6338
head 2.02897 0.852038 -0.326971
rclavicle -1.26228e-014 1.19271e-014
rhumerus 6.65427 -21.3149 3.59775
rradius 24.0922
rwrist -5.4812
rhand -33.1173 -42.6082
rfingers 7.12502
rthumb -6.32742 -432.494
lclavicle -1.26228e-014 1.19271e-014
lhumerus -55.6177 -39.4929 114.853
lradius 54.2459
lwrist 30.8458
lhand 25.9595 27.7243
lfingers 7.12502
lthumb 50.0406 48.9257
rfemur -30.669 -17.2089 -5.74302
rtibia 54.3669
rfoot -20.1113 2.42296
rtoes -32.3899
lfemur 7.11113 -21.6422 0.136786
ltibia 9.71351
lfoot -14.1222 26.5655
ltoes -31.2535
763
root 1.62658 15.1466 33.8854 -356.571 -4.35096 3.85034
lowerback -0.988214 -2.61168 0.7137
upperback 0.356394 -3.47029 -4.38721
thorax 0.604352 -1.73177 -4.96808
lowerneck -5.57192 1.51533 7.07155
upperneck 3.3741 1.35113 2.69725
head 2.05298 0.838396 -0.304126
rclavicle -2.50469e-014 -2.38542e-014
rhumerus 6.6629 -21.2732 3.53454
rradius 24.0929
rwrist -5.52185
rhand -33.0706 -42.4916
rfingers 7.12502
rthumb -6.28237 -432.378
lclavicle -2.50469e-014 -2.38542e-014
lhumerus -55.5871 -39.5308 114.888
lradius 54.196
lwrist 30.8164
lhand 26.0277 27.8059
lfingers 7.12502
lthumb 50.103 48.9744
rfemur -30.6507 -17.2034 -5.70948
rtibia 54.3516
rfoot -20.1133 2.42417
rtoes -32.3646
lfemur 7.07975 -21.746 0.174459
ltibia 9.76898
lfoot -14.1337 26.6692
ltoes -31.2753
764
root 1.62771 15.1462 33.8872 -356.566 -4.34409 3.81541
lowerback -0.988639 -2.60662 0.699409
upperback 0.351543 -3.46345 -4.37783
thorax 0.601653 -1.72845 -4.95003
lowerneck -5.62012 1.49826 7.05066
upperneck 3.41832 1.32127 2.7452
head 2.07495 0.826443 -0.286025
rclavicle -2.91716e-014 -7.95139e-016
rhumerus 6.68593 -21.254 3.4692
rradius 24.0822
rwrist -5.52098
rhand -33.026 -42.3923
rfingers 7.12502
rthumb -6.23932 -432.28
lclavicle -2.91716e-014 -7.95139e-016
lhumerus -55.5536 -39.5493 114.913
lradius 54.1546
lwrist 30.7766
lhand 26.0737 27.8665
lfingers 7.12502
lthumb 50.145 49.0128
rfemur -30.635 -17.1827 -5.68201
rtibia 54.3418
rfoot -20.1116 2.41509
rtoes -32.3422
lfemur 7.06403 -21.8447 0.200739
ltibia 9.8133
lfoot -14.1419 26.7708
ltoes -31.2976
765
root 1.62885 15.1457 33.8886 -356.568 -4.34616 3.78969
lowerback -0.97686 -2.59979 0.678184
upperback 0.349026 -3.45427 -4.37034
thorax 0.595012 -1.72402 -4.92944
lowerneck -5.66474 1.48216 7.02857
upperneck 3.44527 1.29473 2.77657
head 2.09082 0.815082 -0.272957
rclavicle -2.71341e-014 8.74653e-015
rhumerus 6.72186 -21.266 3.40067
rradius 24.0578
rwrist -5.45528
rhand -32.9799 -42.3025
rfingers 7.12502
rthumb -6.19482 -432.192
lclavicle -2.71341e-014 8.74653e-015
lhumerus -55.5237 -39.5551 114.93
lradius 54.1238
lwrist 30.7358
lhand 26.0977 27.9006
lfingers 7.12502
lthumb 50.167 49.0352
rfemur -30.6217 -17.1488 -5.66385
rtibia 54.3373
rfoot -20.1064 2.39826
rtoes -32.3249
lfemur 7.06542 -21.9379 0.211592
ltibia 9.84532
lfoot -14.1468 26.8703
ltoes -31.3169
766
root 1.63006 15.1452 33.8897 -356.579 -4.354 3.77547
lowerback -0.954911 -2.59261 0.649446
upperback 0.348808 -3.44461 -4.3654
thorax 0.585353 -1.71938 -4.90681
lowerneck -5.70444 1.46963 7.01312
upperneck 3.45549 1.27491 2.78224
head 2.10075 0.805866 -0.269047
rclavicle 2.5345e-015 1.98785e-014
rhumerus 6.76369 -21.2794 3.3388
rradius 24.0299
rwrist -5.35318
rhand -32.9408 -42.225
rfingers 7.12502
rthumb -6.15702 -432.115
lclavicle 2.5345e-015 1.98785e-014
lhumerus -55.4977 -39.5511 114.942
lradius 54.1021
lwrist 30.7073
lhand 26.0914 27.9118
lfingers 7.12502
lthumb 50.1613 49.0495
rfemur -30.6078 -17.1088 -5.65841
rtibia 54.3366
rfoot -20.0992 2.37769
rtoes -32.3125
lfemur 7.08197 -22.0284 0.204853
ltibia 9.86561
lfoot -14.1468 26.968
ltoes -31.3335
767
root 1.63132 15.1448 33.8906 -356.595 -4.36474 3.76874
lowerback -0.926807 -2.58578 0.616869
upperback 0.351098 -3.43541 -4.36254
thorax 0.574867 -1.71496 -4.88395
lowerneck -5.73108 1.46111 7.00573
upperneck 3.44089 1.26325 2.76498
head 2.10059 0.799246 -0.273652
rclavicle 2.05742e-014 7.15625e-015
rhumerus 6.80571 -21.2797 3.28612
rradius 24.0064
rwrist -5.24036
rhand -32.9146 -42.1765
rfingers 7.12502
rthumb -6.13181 -432.068
lclavicle 2.05742e-014 7.15625e-015
lhumerus -55.4745 -39.5432 114.946
lradius 54.0879
lwrist 30.7019
lhand 26.0667 27.9076
lfingers 7.12502
lthumb 50.1387 49.0573
rfemur -30.5936 -17.0662 -5.6607
rtibia 54.3379
rfoot -20.0903 2.35552
rtoes -32.2995
lfemur 7.10823 -22.118 0.187475
ltibia 9.87603
lfoot -14.1426 27.0635
ltoes -31.3472
768
root 1.63266 15.1445 33.8913 -356.614 -4.37438 3.76805
lowerback -0.894369 -2.57949 0.582939
upperback 0.354467 -3.42699 -4.36226
thorax 0.562901 -1.71095 -4.86284
lowerneck -5.7421 1.45462 6.99836
upperneck 3.4069 1.25704 2.73882
head 2.09135 0.794301 -0.28102
rclavicle -1.97294e-014 0
rhumerus 6.85002 -21.2862 3.23398
rradius 23.9827
rwrist -5.10175
rhand -32.9023 -42.1298
rfingers 7.12502
rthumb -6.11992 -432.021
lclavicle -1.97294e-014 0
lhumerus -55.4554 -39.536 114.948
lradius 54.0777
lwrist 30.7257
lhand 26.0274 27.9013
lfingers 7.12502
lthumb 50.1027 49.0699
rfemur -30.5761 -17.0264 -5.67003
rtibia 54.3388
rfoot -20.0811 2.33449
rtoes -32.2874
lfemur 7.13878 -22.2098 0.162445
ltibia 9.88075
lfoot -14.1356 27.157
ltoes -31.3567
769
root 1.63413 15.1443 33.8919 -356.633 -4.37712 3.76941
lowerback -0.862693 -2.57376 0.55458
upperback 0.357581 -3.41939 -4.36623
thorax 0.550433 -1.70735 -4.84935
lowerneck -5.72917 1.44893 6.99563
upperneck 3.3513 1.25489 2.70783
head 2.07079 0.790368 -0.290711
rclavicle -1.65488e-014 -2.38542e-015
rhumerus 6.88373 -21.2775 3.18908
rradius 23.9644
rwrist -4.96851
rhand -32.9053 -42.0732
rfingers 7.12502
rthumb -6.12275 -431.965
lclavicle -1.65488e-014 -2.38542e-015
lhumerus -55.4446 -39.5354 114.946
lradius 54.07
lwrist 30.7748
lhand 25.9966 27.9036
lfingers 7.12502
lthumb 50.0745 49.0871
rfemur -30.5537 -16.9958 -5.68253
rtibia 54.3374
rfoot -20.0723 2.31721
rtoes -32.2706
lfemur 7.1654 -22.3083 0.136984
ltibia 9.88465
lfoot -14.1286 27.2492
ltoes -31.3655
770
root 1.63566 15.1442 33.8923 -356.65 -4.36971 3.77082
lowerback -0.835755 -2.56837 0.530475
upperback 0.361272 -3.41221 -4.37259
thorax 0.540777 -1.7039 -4.84104
lowerneck -5.69677 1.44262 6.99208
upperneck 3.28048 1.25423 2.67999
head 2.04166 0.786569 -0.299307
rclavicle -2.39536e-014 -2.14687e-014
rhumerus 6.9055 -21.2626 3.15155
rradius 23.95
rwrist -4.84284
rhand -32.9131 -41.9973
rfingers 7.12502
rthumb -6.13031 -431.889
lclavicle -2.39536e-014 -2.14687e-014
lhumerus -55.4388 -39.5435 114.944
lradius 54.0634
lwrist 30.8382
lhand 25.9805 27.917
lfingers 7.12502
lthumb 50.0598 49.1083
rfemur -30.5257 -16.9765 -5.69613
rtibia 54.332
rfoot -20.0644 2.30321
rtoes -32.2536
lfemur 7.18219 -22.416 0.1155
ltibia 9.89134
lfoot -14.1193 27.3418
ltoes -31.3746
771
root 1.63726 15.1443 33.8927 -356.665 -4.35043 3.77085
lowerback -0.813407 -2.56248 0.51303
upperback 0.364637 -3.40437 -4.38251
thorax 0.532807 -1.70008 -4.84044
lowerneck -5.65573 1.43353 6.99119
upperneck 3.21107 1.25004 2.65858
head 2.01136 0.781204 -0.306443
rclavicle -1.35174e-014 -6.36111e-015
rhumerus 6.91216 -21.2407 3.12013
rradius 23.939
rwrist -4.73912
rhand -32.9206 -41.9297
rfingers 7.12502
rthumb -6.13754 -431.821
lclavicle -1.35174e-014 -6.36111e-015
lhumerus -55.4389 -39.5643 114.942
lradius 54.0563
lwrist 30.9025
lhand 25.9834 27.9391
lfingers 7.12502
lthumb 50.0625 49.1289
rfemur -30.4913 -16.9708 -5.70976
rtibia 54.3217
rfoot -20.0582 2.29292
rtoes -32.2377
lfemur 7.18609 -22.5339 0.100065
ltibia 9.90404
lfoot -14.1091 27.4359
ltoes -31.3872
772
root 1.63886 15.1444 33.893 -356.677 -4.31876 3.76738
lowerback -0.798779 -2.55655 0.499494
upperback 0.368634 -3.39636 -4.39261
thorax 0.52959 -1.69609 -4.84265
lowerneck -5.61389 1.42119 6.99289
upperneck 3.15224 1.24068 2.64149
head 1.98431 0.773776 -0.312791
rclavicle -1.25731e-014 2.22639e-014
rhumerus 6.90401 -21.2089 3.09779
rradius 23.9344
rwrist -4.67688
rhand -32.9199 -41.8673
rfingers 7.12502
rthumb -6.13686 -431.758
lclavicle -1.25731e-014 2.22639e-014
lhumerus -55.4417 -39.5933 114.943
lradius 54.0487
lwrist 30.9546
lhand 26.0052 27.9632
lfingers 7.12502
lthumb 50.0824 49.1425
rfemur -30.45 -16.9771 -5.72109
rtibia 54.3061
rfoot -20.0534 2.28525
rtoes -32.2218
lfemur 7.17653 -22.6624 0.093058
ltibia 9.92454
lfoot -14.099 27.532
ltoes -31.4028
